<svg xmlns="http://www.w3.org/2000/svg" version="1.1" xmlns:xlink="http://www.w3.org/1999/xlink" xmlns:svgjs="http://svgjs.dev/svgjs" width="2000" height="1247" viewBox="0 0 2000 1247"><g transform="matrix(1,0,0,1,-1.2120519697112968,0.504858299595071)"><svg viewBox="0 0 396 247" data-background-color="#ffffff" preserveAspectRatio="xMidYMid meet" height="1247" width="2000" xmlns="http://www.w3.org/2000/svg" xmlns:xlink="http://www.w3.org/1999/xlink"><g id="tight-bounds" transform="matrix(1,0,0,1,0.23998629000283245,-0.09999999999999432)"><svg viewBox="0 0 395.52 247.2" height="247.2" width="395.52"><g><svg></svg></g><g><svg viewBox="0 0 395.52 247.2" height="247.2" width="395.52"><g><g><path xmlns="http://www.w3.org/2000/svg" d="M107.897 247.2c0.818-7.565 3.517-13.025 8.097-16.378 2.821-2.072 6.154-3.703 9.996-4.891l74.081 0c0.76 0.095 1.524 0.192 2.289 0.291 12.064 1.513 22.9 2.372 32.511 2.576-5.93 5.93-12.104 9.61-18.525 11.041-6.461 1.431-11.839 2.147-16.132 2.147-8.179 0-16.214 0.061-24.107 0.184-7.852 0.082-15.601 0.225-23.248 0.43-7.688 0.204-15.253 0.675-22.696 1.41-7.483 0.695-14.906 1.758-22.266 3.19zM213.708 17.482c-10.632 0.204-19.67 0.511-27.112 0.92-7.483 0.409-14.435 1.022-20.855 1.84-2.375 0.301-4.826 0.643-7.351 1.027l-13.111 0c2.06-6.619 7.49-11.725 16.29-15.319 9.814-3.967 25.047-5.95 45.699-5.95 10.223 0 20.61 0.409 31.16 1.227 10.51 0.818 20.16 1.697 28.953 2.637 8.792 0.9 15.539 1.758 20.242 2.577-4.907 4.907-10.06 7.913-15.458 9.017-5.439 1.145-10.203 1.718-14.292 1.717-6.338 0-12.309 0-17.911 0-5.643 0-10.816 0.102-15.519 0.307-0.21 1.104-0.448 2.366-0.712 3.787l-11.272 0c0.426-1.345 0.843-2.607 1.249-3.787z" fill="#ffffff" fill-rule="nonzero" stroke="none" stroke-width="1" stroke-linecap="butt" stroke-linejoin="miter" stroke-miterlimit="10" stroke-dasharray="" stroke-dashoffset="0" font-family="none" font-weight="none" font-size="none" text-anchor="none" style="mix-blend-mode: normal" data-fill-palette-color="tertiary"></path></g></g><g transform="matrix(1,0,0,1,0,54.088576449912125)"><svg viewBox="0 0 395.52 139.02284710017574" height="139.02284710017574" width="395.52"><g><svg viewBox="0 0 395.52 139.02284710017574" height="139.02284710017574" width="395.52"><g><svg viewBox="0 0 395.52 139.02284710017574" height="139.02284710017574" width="395.52"><g><svg viewBox="0 0 395.52 139.02284710017574" height="139.02284710017574" width="395.52"><g><svg viewBox="0 0 395.52 139.02284710017574" height="139.02284710017574" width="395.52"><g transform="matrix(1,0,0,1,0,0)"><svg width="395.52" viewBox="-1.9000000953674316 -36 142.239990234375 50" height="139.02284710017574" data-palette-color="#636365"><path d="M-1.9 4.4L-1.9 4.4Q-1.7 2.55-0.58 1.73 0.55 0.9 2.35 0.65 4.15 0.4 6.25 0.4L6.25 0.4Q7.15-1.55 8.05-4.38 8.95-7.2 9.78-10.45 10.6-13.7 11.4-17.07 12.2-20.45 12.9-23.55 13.6-26.65 14.23-29.13 14.85-31.6 15.35-33.05L15.35-33.05Q12.75-33 10.93-32.9 9.1-32.8 7.53-32.6 5.95-32.4 4.1-32.05L4.1-32.05Q4.45-33.95 6.85-34.93 9.25-35.9 14.3-35.9L14.3-35.9Q16.8-35.9 19.38-35.7 21.95-35.5 24.1-35.27 26.25-35.05 27.4-34.85L27.4-34.85Q26.2-33.65 24.88-33.38 23.55-33.1 22.55-33.1L22.55-33.1Q21-33.1 19.63-33.1 18.25-33.1 17.1-33.05L17.1-33.05Q16.9-32 16.5-29.78 16.1-27.55 15.55-24.68 15-21.8 14.4-18.73 13.8-15.65 13.23-12.88 12.65-10.1 12.15-8.1L12.15-8.1Q11.35-4.9 10.35-2.7 9.35-0.5 7.95 0.45L7.95 0.45Q10.55 0.6 13.5 0.98 16.45 1.35 18.8 1.4L18.8 1.4Q17.35 2.85 15.78 3.2 14.2 3.55 13.15 3.55L13.15 3.55Q11.15 3.55 9.22 3.58 7.3 3.6 5.43 3.65 3.55 3.7 1.73 3.88-0.1 4.05-1.9 4.4ZM38.15 1L38.15 1Q36.4 1 35.52 0.1 34.65-0.8 34.65-2.2L34.65-2.2Q34.65-3.25 35.02-4.4 35.4-5.55 35.75-6.78 36.1-8 36.1-9.15L36.1-9.15Q36.1-10.55 35.52-11.08 34.95-11.6 34.1-11.6L34.1-11.6Q32.55-11.6 30.95-10.33 29.35-9.05 27.85-7.08 26.35-5.1 25.05-3 23.75-0.9 22.75 0.75L22.75 0.75Q21.95 0.75 21.22 0.48 20.5 0.2 20.1-0.35L20.1-0.35Q20.1-0.6 20.62-1.9 21.15-3.2 21.85-5.1 22.55-7 23.1-9 23.65-11 23.65-12.65L23.65-12.65Q23.95-13 24.6-13.35 25.25-13.7 25.95-13.7L25.95-13.7Q27.3-13.7 27.3-12.4L27.3-12.4Q27.3-11.6 26.85-9.73 26.4-7.85 25.7-5.8L25.7-5.8Q27.05-7.85 28.72-9.88 30.4-11.9 32.3-13.25 34.2-14.6 36.1-14.6L36.1-14.6Q38.05-14.6 38.92-13.2 39.8-11.8 39.8-10.1L39.8-10.1Q39.8-8.55 39.3-7.23 38.8-5.9 38.27-4.67 37.75-3.45 37.75-2.2L37.75-2.2Q37.75-1.15 38.17-0.73 38.6-0.3 39.25-0.3L39.25-0.3Q40.5-0.3 41.75-1.48 43-2.65 44.17-4.45 45.35-6.25 46.25-8.1L46.25-8.1 46.8-7.45Q45.75-5 44.45-3.1 43.15-1.2 41.6-0.1 40.05 1 38.15 1ZM48.25 1.5L48.25 1.5Q47.4 1.5 46.52 1.07 45.65 0.65 45.07-0.3 44.5-1.25 44.5-2.7L44.5-2.7Q44.5-4.35 45.3-6.4 46.09-8.45 47.45-10.48 48.8-12.5 50.55-14.23 52.3-15.95 54.2-16.98 56.09-18 57.95-18L57.95-18Q59-18 59.57-17.63 60.15-17.25 60.15-16.45L60.15-16.45Q60.15-16.25 60.12-16.1 60.09-15.95 60.05-15.75L60.05-15.75Q59.8-16.15 59.32-16.32 58.84-16.5 58.15-16.5L58.15-16.5Q56.55-16.5 55.02-15.53 53.5-14.55 52.22-12.98 50.95-11.4 50-9.6 49.05-7.8 48.52-6.13 48-4.45 48-3.3L48-3.3Q48-2.2 48.5-1.55 49-0.9 49.8-0.9L49.8-0.9Q51.15-0.9 53.07-2.6 55-4.3 57-7.4 59-10.5 60.59-14.65L60.59-14.65Q61.7-17.55 62.87-20.55 64.05-23.55 65.25-26.33 66.45-29.1 67.57-31.28 68.7-33.45 69.72-34.73 70.75-36 71.55-36L71.55-36Q71.95-36 72.25-35.68 72.55-35.35 72.55-34.85L72.55-34.85Q72.55-34.05 71.72-32.13 70.9-30.2 69.57-27.53 68.25-24.85 66.8-21.7 65.34-18.55 64.02-15.3 62.7-12.05 61.87-9.03 61.05-6 61.05-3.5L61.05-3.5Q61.05-2.1 61.2-1.4 61.34-0.7 62.2-0.7L62.2-0.7Q63.25-0.7 64.65-1.6 66.05-2.5 67.45-4.15 68.84-5.8 69.9-8.1L69.9-8.1 70.5-7.65Q69.55-5.1 67.9-3.08 66.25-1.05 64.37 0.13 62.5 1.3 60.8 1.3L60.8 1.3Q58.95 1.3 58.22 0.08 57.5-1.15 57.5-2.45L57.5-2.45Q57.5-3.3 57.75-4.7 58-6.1 58.45-7.8L58.45-7.8Q56.84-5.15 55.05-3.03 53.25-0.9 51.52 0.3 49.8 1.5 48.25 1.5ZM72.69 1.5L72.69 1.5Q70.99 1.5 69.97-0.03 68.94-1.55 68.94-3.55L68.94-3.55Q68.94-5 69.42-6.9 69.89-8.8 70.59-10.65 71.29-12.5 72.04-13.7 72.79-14.9 73.34-14.9L73.34-14.9Q73.59-14.9 74.19-14.63 74.79-14.35 75.19-13.9L75.19-13.9Q74.64-13.05 73.84-11.3 73.04-9.55 72.44-7.55 71.84-5.55 71.84-3.85L71.84-3.85Q71.84-3.45 71.94-2.63 72.04-1.8 72.44-1.15 72.84-0.5 73.64-0.5L73.64-0.5Q74.59-0.5 75.59-1.48 76.59-2.45 77.62-4 78.64-5.55 79.59-7.35 80.54-9.15 81.37-10.8 82.19-12.45 82.74-13.55L82.74-13.55Q83.04-13.5 83.62-13.35 84.19-13.2 84.67-12.95 85.14-12.7 85.14-12.25L85.14-12.25Q85.14-12.05 84.64-10.93 84.14-9.8 83.47-8.18 82.79-6.55 82.29-4.9 81.79-3.25 81.79-2L81.79-2Q81.79-1.1 82.17-0.55 82.54 0 83.44 0L83.44 0Q84.49 0 85.99-0.95 87.49-1.9 89.04-3.73 90.59-5.55 91.79-8.1L91.79-8.1 92.44-7.65Q91.39-4.95 89.69-2.88 87.99-0.8 86.09 0.35 84.19 1.5 82.39 1.5L82.39 1.5Q81.09 1.5 80.32 1 79.54 0.5 79.22-0.35 78.89-1.2 78.89-2.2L78.89-2.2Q78.89-2.8 78.99-3.43 79.09-4.05 79.24-4.7L79.24-4.7Q78.34-3.05 77.29-1.63 76.24-0.2 75.09 0.65 73.94 1.5 72.69 1.5ZM94.99 1.5L94.99 1.5Q92.84 1.5 91.92 0.03 90.99-1.45 90.99-3.65L90.99-3.65Q90.99-6.05 91.89-9.35 92.79-12.65 94.27-16.3 95.74-19.95 97.49-23.43 99.24-26.9 100.99-29.75 102.74-32.6 104.22-34.3 105.69-36 106.54-36L106.54-36Q107.09-36 107.44-35.38 107.79-34.75 107.99-33.88 108.19-33 108.19-32.3L108.19-32.3Q108.19-30.95 107.52-28.78 106.84-26.6 105.62-23.93 104.39-21.25 102.72-18.53 101.04-15.8 99.07-13.3 97.09-10.8 94.89-9L94.89-9Q94.59-7.65 94.42-6.38 94.24-5.1 94.24-3.95L94.24-3.95Q94.24-2 94.79-1.05 95.34-0.1 96.44-0.1L96.44-0.1Q97.79-0.1 99.12-1.3 100.44-2.5 101.62-4.33 102.79-6.15 103.64-8.1L103.64-8.1 104.39-7.7Q102.39-3.45 100.04-0.98 97.69 1.5 94.99 1.5ZM95.34-10.7L95.34-10.7Q97.09-12.45 98.74-14.73 100.39-17 101.82-19.45 103.24-21.9 104.34-24.2 105.44-26.5 106.04-28.33 106.64-30.15 106.64-31.15L106.64-31.15Q106.64-31.65 106.52-31.8 106.39-31.95 106.29-31.95L106.29-31.95Q105.89-31.95 104.92-30.68 103.94-29.4 102.64-27.25 101.34-25.1 99.99-22.35 98.64-19.6 97.42-16.6 96.19-13.6 95.34-10.7ZM104.54 14L104.54 14Q103.44 14 102.54 13.33 101.64 12.65 101.64 11.1L101.64 11.1Q101.64 9.6 102.56 8.33 103.49 7.05 104.94 5.98 106.39 4.9 108.11 4 109.84 3.1 111.39 2.3L111.39 2.3Q112.09 0.55 112.71-1.48 113.34-3.5 113.94-5.95L113.94-5.95Q112.04-3.2 109.96-1.38 107.89 0.45 105.79 0.45L105.79 0.45Q103.99 0.45 103.01-0.9 102.04-2.25 102.04-4.4L102.04-4.4Q102.04-7 103.31-9.35 104.59-11.7 106.64-13.5 108.69-15.3 110.99-16.32 113.29-17.35 115.29-17.35L115.29-17.35Q116.74-17.35 117.36-16.88 117.99-16.4 117.99-15.75L117.99-15.75Q117.99-15.3 117.74-15.05 117.49-14.8 117.39-14.75L117.39-14.75Q117.14-15.15 116.64-15.33 116.14-15.5 115.39-15.5L115.39-15.5Q113.44-15.5 111.61-14.35 109.79-13.2 108.39-11.4 106.99-9.6 106.16-7.68 105.34-5.75 105.34-4.15L105.34-4.15Q105.34-2.95 105.81-2.33 106.29-1.7 107.09-1.7L107.09-1.7Q108.54-1.7 110.56-3.63 112.59-5.55 114.49-8.3L114.49-8.3Q114.64-9 114.76-9.55 114.89-10.1 115.09-10.95L115.09-10.95Q115.24-11.65 115.81-12.58 116.39-13.5 117.64-13.5L117.64-13.5Q117.89-13.5 118.14-13.48 118.39-13.45 118.69-13.35L118.69-13.35Q118.69-12.55 118.21-10.43 117.74-8.3 116.86-5.48 115.99-2.65 114.84 0.35L114.84 0.35Q116.49-0.45 118.06-1.7 119.64-2.95 120.94-4.58 122.24-6.2 122.99-8.1L122.99-8.1 123.64-7.6Q122.89-5.35 121.24-3.5 119.59-1.65 117.71-0.3 115.84 1.05 114.29 1.8L114.29 1.8Q112.89 5.15 111.34 7.93 109.79 10.7 108.11 12.35 106.44 14 104.54 14ZM104.39 12.4L104.39 12.4Q105.39 12.4 107.11 10.43 108.84 8.45 110.84 3.65L110.84 3.65Q108.84 4.65 107.11 5.73 105.39 6.8 104.29 8 103.19 9.2 103.19 10.65L103.19 10.65Q103.19 11.45 103.54 11.93 103.89 12.4 104.39 12.4ZM127.49 2.2L127.49 2.2Q124.44 2.2 122.91 0.53 121.39-1.15 121.39-3.6L121.39-3.6Q121.39-5.85 122.51-8.35 123.64-10.85 125.51-13.05 127.39-15.25 129.64-16.63 131.89-18 134.09-18L134.09-18Q135.24-18 136.21-17.4 137.19-16.8 137.19-14.95L137.19-14.95Q137.19-13.05 136.06-11.38 134.94-9.7 133.11-8.4 131.29-7.1 129.11-6.28 126.94-5.45 124.79-5.25L124.79-5.25Q124.69-4.75 124.64-4.3 124.59-3.85 124.59-3.45L124.59-3.45Q124.59-2.7 124.76-1.95 124.94-1.2 125.39-0.58 125.84 0.05 126.61 0.4 127.39 0.75 128.54 0.75L128.54 0.75Q130.69 0.75 132.79-0.48 134.89-1.7 136.69-3.7 138.49-5.7 139.74-8.1L139.74-8.1 140.34-7.65Q138.99-4.65 136.91-2.45 134.84-0.25 132.41 0.98 129.99 2.2 127.49 2.2ZM125.04-6.2L125.04-6.2Q126.39-6.65 128.09-7.53 129.79-8.4 131.36-9.6 132.94-10.8 133.96-12.25 134.99-13.7 134.99-15.3L134.99-15.3Q134.99-15.85 134.79-16.15 134.59-16.45 133.94-16.45L133.94-16.45Q132.74-16.45 131.39-15.53 130.04-14.6 128.79-13.1 127.54-11.6 126.54-9.8 125.54-8 125.04-6.2Z" opacity="1" transform="matrix(1,0,0,1,0,0)" fill="#ffffff" class="undefined-text-0" data-fill-palette-color="primary" id="text-0"></path></svg></g></svg></g></svg></g></svg></g><g></g></svg></g></svg></g></svg></g><defs></defs></svg><rect width="395.52" height="247.2" fill="none" stroke="none" visibility="hidden"></rect></g></svg></g></svg>